<?xml version="1.0" standalone="no"?><!DOCTYPE svg PUBLIC "-//W3C//DTD SVG 1.1//EN" "http://www.w3.org/Graphics/SVG/1.1/DTD/svg11.dtd"><svg class="icon" width="200px" height="200.00px" viewBox="0 0 1024 1024" version="1.1" xmlns="http://www.w3.org/2000/svg"><path d="M875.281 484.315c12.369-12.211 32.298-12.082 44.509 0.288l5.314 5.383c12.207 12.366 12.078 32.295-0.291 44.505l-437.537 430.482c-12.369 12.211-32.299 12.082-44.505-0.284l-5.314-5.383c-12.211-12.37-12.082-32.299 0.288-44.509l437.536-430.482zM875.281 484.315zM875.281 539.685l-437.537-430.482c-12.369-12.211-12.499-32.139-0.288-44.509l5.314-5.383c12.207-12.366 32.135-12.495 44.505-0.284l437.536 430.482c12.369 12.211 12.498 32.139 0.291 44.505l-5.314 5.383c-12.21 12.37-32.138 12.499-44.507 0.288l0 0zM875.281 539.685zM536.724 484.315c12.369-12.211 32.298-12.082 44.509 0.288l5.314 5.383c12.207 12.366 12.078 32.295-0.291 44.505l-437.537 430.482c-12.369 12.211-32.299 12.082-44.505-0.284l-5.314-5.383c-12.211-12.37-12.082-32.299 0.288-44.509l437.536-430.482zM536.724 484.315zM536.724 539.685l-437.537-430.482c-12.369-12.211-12.499-32.139-0.288-44.509l5.314-5.383c12.207-12.366 32.135-12.495 44.505-0.284l437.536 430.482c12.369 12.211 12.498 32.139 0.291 44.505l-5.314 5.383c-12.21 12.37-32.138 12.499-44.507 0.288l0 0zM536.724 539.685z" /></svg>