<?xml version="1.0" standalone="no"?><!DOCTYPE svg PUBLIC "-//W3C//DTD SVG 1.1//EN" "http://www.w3.org/Graphics/SVG/1.1/DTD/svg11.dtd"><svg class="icon" width="200px" height="200.00px" viewBox="0 0 1024 1024" version="1.1" xmlns="http://www.w3.org/2000/svg"><path d="M1004.379445 909.836244L797.252139 702.666052a439.157348 439.157348 0 0 0 85.77292-261.164244C882.982173 198.063967 684.932501 0 441.508956 0S0.035739 198.049671 0.035739 441.501808s198.063967 441.501808 441.473217 441.501808a439.128757 439.128757 0 0 0 261.135653-85.77292l207.170192 207.155896a66.859991 66.859991 0 0 0 94.550348-94.550348M108.681437 441.501808C108.681437 257.976351 257.983499 108.645698 441.508956 108.645698s332.813223 149.330653 332.813223 332.85611S625.034412 774.28644 441.508956 774.28644 108.681437 624.998674 108.681437 441.501808" fill="#707070" /></svg>