<?xml version="1.0" standalone="no"?><!DOCTYPE svg PUBLIC "-//W3C//DTD SVG 1.1//EN" "http://www.w3.org/Graphics/SVG/1.1/DTD/svg11.dtd"><svg class="icon" width="200px" height="188.41px" viewBox="0 0 1087 1024" version="1.1" xmlns="http://www.w3.org/2000/svg"><path d="M543.203275 339.479098a167.023716 167.023716 0 1 0 167.023716 167.023717A167.023716 167.023716 0 0 0 543.203275 339.479098z m0 271.583279a101.84373 101.84373 0 1 1 101.843729-101.843729A101.84373 101.84373 0 0 1 543.203275 611.062377z"  /><path d="M964.836315 347.626597h-7.46854a86.227691 86.227691 0 0 1-67.89582-115.422894v-6.789582a126.286225 126.286225 0 0 0-44.811241-169.739549l-67.89582-38.700617A126.286225 126.286225 0 0 0 611.099094 59.069363a86.227691 86.227691 0 0 1-67.895819 29.195203 85.548733 85.548733 0 0 1-67.89582-29.195203A126.286225 126.286225 0 0 0 308.962697 16.973955l-67.89582 38.700617a126.286225 126.286225 0 0 0-48.206032 168.381633v6.789582a86.227691 86.227691 0 0 1-67.89582 115.422893h-7.46854A126.286225 126.286225 0 0 0 0.036717 475.270738v76.043318A126.286225 126.286225 0 0 0 121.570234 678.958197a86.227691 86.227691 0 0 1 63.143113 114.743935v6.110624a126.286225 126.286225 0 0 0 48.206032 168.381633l67.895819 38.700617a126.286225 126.286225 0 0 0 170.418508-42.095408l4.073749-6.110624a86.227691 86.227691 0 0 1 67.89582-31.232077h8.147498a86.227691 86.227691 0 0 1 67.89582 31.232077l4.073749 4.752708a126.286225 126.286225 0 0 0 170.418507 42.095408l67.89582-38.700617a126.286225 126.286225 0 0 0 48.206032-168.381633v-6.110624a86.227691 86.227691 0 0 1 54.995614-113.386019A126.286225 126.286225 0 0 0 1086.369832 551.314056V475.270738a126.286225 126.286225 0 0 0-121.533517-127.644141z m24.442495 203.687459a28.516244 28.516244 0 0 1-28.516244 28.516244H950.578193a183.997671 183.997671 0 0 0-141.902263 245.782868l3.394791 9.505414 3.394791 7.46854a29.195202 29.195202 0 0 1-10.863331 39.379576l-67.89582 38.700617a29.195202 29.195202 0 0 1-39.379576-10.863331l-4.752707-6.789582-6.110624-7.46854a183.318713 183.318713 0 0 0-141.902263-67.89582h-5.431665a183.318713 183.318713 0 0 0-141.902264 67.89582l-6.110623 7.46854-4.752708 6.789582a28.516244 28.516244 0 0 1-39.379575 10.863331l-67.89582-38.700617a29.195202 29.195202 0 0 1-7.46854-38.700617v-16.294997a183.997671 183.997671 0 0 0-135.791639-245.782867h-9.505415a28.516244 28.516244 0 0 1-28.516245-28.516245V475.270738a28.516244 28.516244 0 0 1 28.516245-28.516244H146.691688A183.997671 183.997671 0 0 0 287.236034 196.897877l-4.073749-10.184373-3.394791-7.46854a29.195202 29.195202 0 0 1 10.863331-39.379575l67.89582-38.700618a28.516244 28.516244 0 0 1 39.379576 10.863332l4.752707 6.789581a183.997671 183.997671 0 0 0 283.804526 0l4.752708-6.789581a29.195202 29.195202 0 0 1 39.379575-10.863332l67.89582 38.700618a29.195202 29.195202 0 0 1 10.863331 39.379575l-3.394791 7.46854-4.073749 10.184373a183.997671 183.997671 0 0 0 141.902263 245.782867h19.010829a28.516244 28.516244 0 0 1 28.516245 28.516245z"  /></svg>