<?xml version="1.0" standalone="no"?><!DOCTYPE svg PUBLIC "-//W3C//DTD SVG 1.1//EN" "http://www.w3.org/Graphics/SVG/1.1/DTD/svg11.dtd"><svg class="icon" width="200px" height="200.00px" viewBox="0 0 1024 1024" version="1.1" xmlns="http://www.w3.org/2000/svg"><path d="M512 56.888889c250.311111 0 455.111111 204.8 455.111111 455.111111s-204.8 455.111111-455.111111 455.111111S56.888889 762.311111 56.888889 512 261.688889 56.888889 512 56.888889m0-56.888889C230.4 0 0 230.4 0 512s230.4 512 512 512 512-230.4 512-512S793.6 0 512 0z" fill="#55a8fd" /><path d="M423.822222 796.444444c-17.066667 0-28.444444-11.377778-28.444444-28.444444V318.577778l-147.911111 130.844444c-11.377778 11.377778-28.444444 8.533333-39.822223-2.844444s-8.533333-28.444444 2.844445-39.822222l196.266667-170.666667c5.688889-8.533333 19.911111-11.377778 28.444444-5.688889 11.377778 5.688889 17.066667 14.222222 17.066667 25.6v512c0 17.066667-11.377778 28.444444-28.444445 28.444444zM597.333333 796.444444c-2.844444 0-8.533333 0-11.377777-2.844444-11.377778-5.688889-17.066667-14.222222-17.066667-25.6V256c0-17.066667 11.377778-28.444444 28.444444-28.444444s28.444444 11.377778 28.444445 28.444444v449.422222l147.911111-130.844444c11.377778-11.377778 28.444444-8.533333 39.822222 2.844444 11.377778 11.377778 8.533333 28.444444-2.844444 39.822222l-196.266667 170.666667c-2.844444 5.688889-11.377778 8.533333-17.066667 8.533333z" fill="#55a8fd" /></svg>