<?xml version="1.0" standalone="no"?><!DOCTYPE svg PUBLIC "-//W3C//DTD SVG 1.1//EN" "http://www.w3.org/Graphics/SVG/1.1/DTD/svg11.dtd"><svg class="icon" width="200px" height="200.00px" viewBox="0 0 1024 1024" version="1.1" xmlns="http://www.w3.org/2000/svg"><path d="M877.728 0H146.304A146.72 146.72 0 0 0 0.032 146.272v731.424a146.72 146.72 0 0 0 146.272 146.272h731.424A146.72 146.72 0 0 0 1024 877.696V146.272A146.72 146.72 0 0 0 877.728 0z m73.12 877.728c0 43.872-29.248 73.152-73.152 73.152H146.272c-43.872 0-73.152-29.248-73.152-73.152V146.304c0-43.872 29.248-73.152 73.152-73.152h731.424c43.872 0 73.152 29.248 73.152 73.152v731.424z" /></svg>