<?xml version="1.0" standalone="no"?><!DOCTYPE svg PUBLIC "-//W3C//DTD SVG 1.1//EN" "http://www.w3.org/Graphics/SVG/1.1/DTD/svg11.dtd"><svg class="icon" width="200px" height="200.00px" viewBox="0 0 1024 1024" version="1.1" xmlns="http://www.w3.org/2000/svg"><path d="M512 970.752c-256.13653333 0-463.6672-204.25386667-463.6672-460.3904S255.86346667 47.78666667 512 47.78666667s464.21333333 208.0768 464.21333333 464.21333333-207.53066667 458.752-464.21333333 458.752z m0-868.352c-224.4608 0-409.6 185.1392-409.6 409.6s186.23146667 404.13866667 410.14613333 404.13866667 409.05386667-180.224 409.05386667-404.13866667c0-224.4608-185.1392-409.6-409.6-409.6z m31.67573333 545.04106667c-7.09973333 7.09973333-16.93013333 13.65333333-26.2144 12.01493333-9.28426667 1.6384-18.0224-5.46133333-25.12213333-12.01493333L270.60906667 425.1648c-11.4688-11.4688-11.4688-29.4912 0-40.96 11.4688-11.4688 29.4912-11.4688 40.96 0l206.4384 211.89973333L724.992 384.2048c11.4688-11.4688 29.4912-11.4688 40.96 0 11.4688 11.4688 11.4688 29.4912 0 40.96l-222.27626667 222.27626667z" /></svg>